<?xml version="1.0" encoding="utf-8"?>
<!-- Generator: Adobe Illustrator 21.1.0, SVG Export Plug-In . SVG Version: 6.00 Build 0)  -->
<svg version="1.1" id="Calque_1" xmlns="http://www.w3.org/2000/svg" xmlns:xlink="http://www.w3.org/1999/xlink" x="0px" y="0px"
	 viewBox="0 0 1280 1024" style="enable-background:new 0 0 1280 1024;" xml:space="preserve">
<style type="text/css">
	.st0{fill:#F9EF82;}
	.st1{fill:url(#SVGID_1_);}
	.st2{fill:url(#SVGID_2_);}
	.st3{fill:#13213C;}
</style>
<circle class="st0" cx="241.4" cy="511.8" r="51.4"/>
<g>
	<g>
		
			<radialGradient id="SVGID_1_" cx="929.4891" cy="-459.0919" r="661.8774" gradientTransform="matrix(-0.9509 0.3096 -0.3096 -0.9509 1153.0316 437.4288)" gradientUnits="userSpaceOnUse">
			<stop  offset="0" style="stop-color:#F79972"/>
			<stop  offset="1" style="stop-color:#F9EF82"/>
		</radialGradient>
		<circle class="st1" cx="683.8" cy="511.8" r="290.7"/>
	</g>
	
		<radialGradient id="SVGID_2_" cx="890.4354" cy="-290.9912" r="747.2262" gradientTransform="matrix(-0.9509 0.3096 -0.3096 -0.9509 1153.0316 437.4288)" gradientUnits="userSpaceOnUse">
		<stop  offset="0" style="stop-color:#F79972"/>
		<stop  offset="1" style="stop-color:#F9EF82"/>
	</radialGradient>
	<path class="st2" d="M609.5,450.5c204.8-125.2,318.3,61.3,361.7,105c6.6-43.5,3.6-89.1-11-133.7
		c-49.7-152.7-213.8-236.2-366.5-186.5c-83.8,27.3-146.7,89.1-178.2,164.5C440.7,477.1,514.7,508.4,609.5,450.5z"/>
	<g>
		<path class="st0" d="M917.4,684.7C731.9,780.6,505.9,541.6,438,667.2c69.3,109.8,206.6,163.1,335.8,121.1
			C833.6,768.8,882.7,731.7,917.4,684.7z"/>
	</g>
</g>
<ellipse transform="matrix(0.7071 -0.7071 0.7071 0.7071 -80.4581 829.3939)" class="st3" cx="960.9" cy="511.8" rx="126.4" ry="126.4"/>
</svg>
